<?xml version="1.0" standalone="no"?>
<!DOCTYPE svg PUBLIC "-//W3C//DTD SVG 20010904//EN"
 "http://www.w3.org/TR/2001/REC-SVG-20010904/DTD/svg10.dtd">
<svg version="1.0" xmlns="http://www.w3.org/2000/svg"
 width="836.000000pt" height="836.000000pt" viewBox="0 0 836.000000 836.000000"
 preserveAspectRatio="xMidYMid meet">
<metadata>
Created by potrace 1.14, written by Peter Selinger 2001-2017
</metadata>
<g transform="translate(0.000000,836.000000) scale(0.100000,-0.100000)"
fill="#000000" stroke="none">
<path d="M1695 8337 c-22 -12 -42 -25 -45 -28 -3 -4 -21 -14 -40 -22 -19 -9
-60 -30 -90 -48 -30 -17 -82 -46 -115 -64 -33 -18 -91 -50 -130 -72 -78 -44
-177 -98 -245 -134 -25 -13 -47 -26 -50 -30 -3 -3 -21 -13 -40 -22 -19 -10
-53 -28 -75 -40 -22 -13 -71 -40 -110 -61 -38 -21 -76 -43 -82 -48 -7 -6 -13
-7 -13 -2 0 5 -4 4 -8 -2 -4 -6 -43 -30 -87 -53 -44 -24 -89 -49 -100 -56 -11
-7 -51 -29 -90 -50 -131 -70 -145 -79 -145 -85 0 -4 23 -20 52 -36 28 -16 63
-36 77 -44 14 -9 53 -31 86 -50 33 -19 74 -43 90 -53 17 -10 38 -20 48 -23 9
-4 17 -10 17 -15 0 -5 4 -9 9 -9 12 0 292 -161 309 -177 7 -7 18 -13 23 -13 5
0 39 -18 75 -41 37 -22 78 -45 91 -50 12 -4 23 -13 23 -19 0 -5 7 -10 15 -10
9 0 39 -15 68 -33 29 -18 77 -47 107 -64 30 -17 123 -70 205 -118 83 -48 165
-96 183 -106 l33 -19 122 71 c67 40 142 83 167 97 50 27 257 147 280 163 8 5
22 12 30 16 8 4 70 40 138 80 68 40 127 73 132 73 5 0 10 3 12 8 2 4 18 15 36
25 17 9 47 25 64 35 18 9 35 19 38 22 3 3 16 11 30 18 14 7 79 44 144 82 66
39 123 70 128 70 4 0 8 4 8 9 0 5 8 11 18 14 16 6 57 28 130 72 17 11 32 22
32 25 0 3 -24 19 -52 35 -54 29 -82 45 -272 150 -60 33 -134 74 -165 91 -84
46 -159 87 -231 128 -36 21 -78 44 -95 52 -16 8 -48 25 -70 37 -109 63 -385
215 -475 263 -19 11 -37 21 -40 24 -7 6 -109 60 -113 59 -1 0 -20 -10 -42 -22z"/>
<path d="M6476 7355 c-76 -47 -140 -85 -141 -85 -1 0 -72 -42 -157 -92 -84
-51 -166 -99 -181 -107 -15 -8 -27 -18 -27 -23 0 -4 -9 -8 -19 -8 -11 0 -22
-4 -25 -9 -4 -5 -34 -26 -69 -45 -34 -20 -83 -48 -108 -64 -25 -15 -86 -51
-135 -80 -49 -29 -98 -59 -109 -65 -11 -7 -39 -24 -63 -39 -24 -16 -45 -28
-47 -28 -2 0 -45 -25 -95 -55 -50 -30 -95 -55 -100 -55 -6 0 -10 -4 -10 -9 0
-5 -9 -11 -20 -14 -29 -8 -25 -22 13 -41 17 -9 39 -21 47 -26 20 -13 116 -68
165 -95 22 -12 56 -31 75 -43 19 -11 55 -31 80 -44 25 -13 47 -26 48 -30 2 -5
7 -8 12 -8 4 0 110 -58 235 -130 125 -71 231 -130 236 -130 5 0 9 -5 9 -11 0
-5 5 -7 10 -4 6 3 10 2 10 -3 0 -5 8 -12 18 -15 9 -4 47 -23 83 -44 147 -84
183 -103 191 -103 4 0 8 -4 8 -9 0 -5 8 -11 18 -14 9 -4 44 -22 77 -41 124
-72 105 -70 198 -20 45 25 90 48 100 51 9 3 17 9 17 14 0 5 4 9 9 9 4 0 106
54 225 120 120 66 221 120 226 120 4 0 10 3 12 8 2 4 37 25 78 46 41 22 77 42
80 45 3 3 32 19 65 36 33 16 62 32 65 35 3 3 21 14 40 24 19 9 49 25 65 34 32
18 137 77 195 109 20 11 71 39 115 63 113 60 135 73 135 81 0 4 -15 14 -32 23
-18 9 -54 30 -80 46 -25 15 -66 39 -90 53 -63 36 -170 97 -195 113 -13 8 -26
15 -30 15 -5 1 -20 10 -35 20 -14 10 -31 19 -37 19 -6 0 -11 3 -11 8 0 9 -58
42 -75 42 -7 0 -15 4 -17 8 -2 6 -144 91 -315 189 -18 10 -159 91 -313 181
-155 89 -282 162 -283 162 -1 0 -65 -39 -141 -85z"/>
<path d="M180 4581 l0 -2780 88 -51 c48 -28 94 -55 102 -60 8 -6 22 -13 30
-17 8 -4 74 -42 148 -85 73 -43 137 -78 142 -78 6 0 10 -4 10 -10 0 -5 4 -10
9 -10 9 0 102 -53 546 -310 121 -70 236 -137 256 -148 77 -43 84 -47 89 -52 3
-3 23 -14 45 -25 22 -11 42 -22 45 -25 4 -5 202 -119 360 -208 25 -14 79 -45
120 -70 41 -25 91 -53 110 -64 58 -33 144 -82 165 -95 11 -7 36 -20 55 -29 19
-9 37 -19 40 -23 8 -10 360 -211 371 -211 5 0 9 -4 9 -10 0 -5 6 -10 14 -10 7
0 19 -7 26 -15 7 -9 15 -13 18 -11 2 3 16 -4 30 -14 13 -11 31 -20 38 -20 8 0
14 -4 14 -9 0 -5 8 -11 18 -14 17 -6 63 -32 155 -88 56 -34 71 -36 64 -9 -3
11 -2 22 3 25 4 3 4 21 0 40 -4 19 -5 37 -1 39 3 2 4 93 1 201 -3 108 -2 199
1 201 4 2 3 20 -1 39 -4 19 -5 37 -1 39 3 2 4 93 1 201 -3 108 -2 199 1 201 4
2 3 19 -1 38 -4 19 -6 37 -3 39 3 4 4 306 1 470 0 31 1 59 4 62 2 2 2 26 -2
51 -5 52 2 44 -127 118 -81 47 -381 222 -403 236 -29 18 -105 62 -150 87 -25
14 -52 31 -60 37 -8 7 -26 17 -40 24 -14 7 -32 16 -40 22 -32 21 -247 146
-292 170 -27 14 -48 28 -48 32 0 5 -9 8 -20 8 -11 0 -20 4 -20 8 0 5 -12 15
-27 23 -54 27 -328 189 -348 204 -10 8 -24 15 -31 15 -27 0 -33 30 -33 176 0
82 0 158 0 169 0 11 0 38 0 60 0 22 0 46 0 53 -1 19 -1 61 0 77 1 19 1 2028 0
2053 0 9 0 35 0 57 0 22 0 46 0 53 -1 18 -1 60 0 77 1 19 1 748 0 773 0 9 0
35 0 57 0 22 0 46 0 53 0 6 -1 23 -1 37 0 14 0 33 0 43 0 9 0 34 0 55 1 20 -4
37 -10 37 -6 0 -39 17 -73 39 -70 44 -597 357 -640 380 -33 18 -52 30 -87 52
-28 19 -464 278 -495 295 -11 6 -51 30 -90 54 -38 23 -73 44 -77 47 -5 2 -8
-1247 -8 -2776z"/>
<path d="M3223 7312 c-82 -47 -300 -176 -371 -220 -20 -12 -56 -32 -79 -44
-24 -12 -43 -26 -43 -30 0 -4 -4 -8 -9 -8 -5 0 -77 -40 -160 -90 -83 -49 -155
-90 -161 -90 -5 0 -10 -4 -10 -8 0 -5 -15 -16 -32 -25 -46 -23 -105 -58 -155
-90 -24 -15 -47 -27 -53 -27 -5 0 -10 -4 -10 -10 0 -5 -4 -10 -10 -10 -5 0
-62 -32 -127 -71 -65 -40 -131 -79 -148 -89 l-30 -17 -3 -1803 -2 -1802 22 16
c13 8 46 27 73 42 28 14 57 31 65 38 8 8 35 25 60 38 25 14 90 52 145 85 55
32 190 112 300 178 110 65 217 128 237 141 21 13 42 24 48 24 5 0 10 5 10 10
0 6 5 10 10 10 6 0 34 15 63 33 29 18 59 36 67 40 8 4 29 16 45 27 17 11 38
23 48 26 9 4 17 10 17 14 0 5 8 11 19 15 10 3 70 36 132 74 l114 68 2 228 c1
125 4 229 6 232 3 2 1 20 -3 39 -4 19 -5 36 -1 38 3 2 4 93 1 201 -3 108 -2
199 1 201 4 2 3 20 -1 39 -4 19 -5 37 -1 39 3 2 4 453 1 1001 -3 548 -2 999 1
1001 4 2 3 19 -1 38 -4 19 -6 37 -3 39 5 6 5 428 0 434 -3 2 -1 20 3 39 4 18
7 34 6 34 0 0 -38 -22 -83 -48z"/>
<path d="M8160 6393 c0 -5 -12 -14 -27 -20 -16 -6 -39 -19 -53 -27 -38 -24
-263 -152 -280 -159 -8 -4 -37 -21 -65 -37 -27 -17 -59 -35 -70 -40 -11 -6
-27 -14 -35 -20 -38 -25 -243 -140 -250 -140 -4 0 -13 -7 -20 -15 -7 -8 -21
-15 -30 -15 -10 0 -20 -4 -22 -8 -1 -5 -82 -53 -178 -108 -96 -54 -183 -103
-192 -109 -9 -5 -35 -20 -57 -32 -71 -39 -86 -48 -91 -53 -3 -3 -23 -15 -45
-26 l-40 -22 -2 -78 c-1 -44 -2 -236 -2 -429 1 -192 1 -357 0 -365 0 -8 0 -62
0 -120 2 -120 1 -131 -1 -145 -1 -6 -2 -148 -1 -317 l1 -308 76 45 c42 25 77
45 79 45 2 0 23 13 47 28 24 16 59 38 78 48 19 10 39 23 45 27 8 7 158 96 220
131 11 6 57 34 103 61 46 28 97 58 115 69 18 10 80 47 138 82 59 35 111 64
117 64 6 0 12 4 14 8 2 4 71 48 153 96 83 49 172 102 200 120 27 17 58 36 70
41 20 11 20 15 20 869 1 471 -3 860 -7 862 -4 3 -8 1 -8 -3z"/>
<path d="M5059 6373 c-1 -10 0 -22 1 -28 1 -5 1 -28 0 -50 0 -22 -1 -47 0 -55
0 -8 0 -26 -1 -40 0 -14 0 -31 0 -37 0 -7 1 -35 1 -63 0 -53 0 -63 -1 -125 0
-22 0 -47 1 -55 0 -8 0 -26 -1 -40 0 -14 0 -31 0 -37 0 -7 1 -35 1 -63 0 -53
0 -63 -1 -125 0 -22 0 -47 1 -55 0 -8 0 -26 -1 -40 0 -14 0 -31 0 -37 0 -7 1
-35 1 -63 0 -53 0 -63 -1 -125 0 -22 0 -47 1 -55 0 -8 0 -26 -1 -40 0 -14 0
-31 0 -37 0 -7 1 -35 1 -63 0 -53 0 -63 -1 -125 0 -22 0 -47 1 -55 0 -8 0 -26
-1 -40 0 -14 0 -31 0 -37 1 -12 1 -89 1 -128 -1 -69 3 -82 29 -93 14 -6 35
-17 46 -24 88 -57 107 -68 116 -68 5 0 9 -4 9 -10 0 -5 9 -10 20 -10 11 0 20
-4 20 -8 0 -5 12 -15 28 -23 55 -28 177 -103 180 -111 2 -4 12 -8 23 -8 10 0
19 -4 19 -9 0 -5 10 -13 23 -17 12 -4 24 -9 27 -13 6 -7 110 -71 116 -71 2 0
44 -24 92 -53 92 -57 520 -312 562 -336 59 -33 77 -43 105 -61 17 -11 38 -24
48 -30 16 -10 17 32 15 871 l-3 882 -30 19 c-16 10 -37 21 -45 25 -21 9 -519
292 -550 311 -14 9 -27 17 -30 17 -3 0 -16 8 -30 16 -24 15 -286 164 -395 224
-27 16 -67 39 -87 52 -21 12 -40 23 -42 23 -2 0 -39 20 -80 45 -42 25 -79 45
-81 45 -3 0 -23 11 -45 25 -47 30 -60 31 -61 8z"/>
<path d="M4945 4540 c-16 -10 -82 -48 -145 -85 -63 -38 -149 -88 -190 -112
-41 -24 -82 -48 -90 -53 -67 -42 -222 -130 -230 -130 -6 0 -10 -4 -10 -9 0 -5
-8 -11 -17 -15 -10 -3 -25 -10 -33 -16 -26 -17 -244 -144 -275 -160 -17 -8
-32 -17 -35 -20 -7 -8 -109 -70 -115 -70 -3 0 -28 -15 -57 -33 -29 -19 -60
-37 -68 -40 -8 -4 -33 -18 -55 -32 -22 -14 -51 -31 -65 -38 -14 -6 -29 -15
-35 -20 -11 -8 -349 -208 -399 -236 -17 -9 -107 -62 -201 -117 -387 -229 -568
-334 -576 -334 -5 0 -9 -4 -9 -10 0 -5 -4 -10 -9 -10 -5 0 -45 -21 -88 -47
-43 -25 -87 -51 -98 -57 -89 -50 -186 -109 -191 -117 -3 -5 -10 -7 -15 -4 -5
4 -9 2 -9 -4 0 -5 -9 -13 -21 -16 -11 -4 -19 -11 -17 -16 3 -7 210 -129 378
-222 30 -16 63 -37 73 -45 9 -8 17 -11 17 -7 0 4 8 1 18 -7 9 -9 40 -28 67
-42 28 -15 59 -32 70 -39 59 -36 126 -74 230 -131 11 -6 22 -13 25 -16 3 -3
16 -11 30 -18 25 -12 44 -23 92 -54 14 -10 33 -18 41 -18 9 0 17 -4 19 -8 3
-8 38 -30 128 -80 25 -14 59 -34 75 -44 17 -10 37 -21 45 -25 8 -4 52 -28 97
-55 l82 -48 33 20 c18 11 40 23 48 27 13 6 183 104 230 133 14 8 213 122 255
146 11 6 75 43 142 82 68 40 127 72 132 72 5 0 11 4 13 8 2 4 35 26 73 47 39
22 78 44 87 50 9 5 56 33 104 60 48 28 99 57 113 65 39 23 242 140 276 158 17
10 32 20 33 25 2 4 9 7 17 7 7 0 18 7 25 15 7 8 21 15 31 15 11 0 19 4 19 10
0 5 11 12 25 16 14 3 25 10 25 14 0 4 8 10 18 13 9 4 40 20 67 37 28 17 59 35
70 40 11 6 27 14 35 20 30 20 171 100 176 100 3 0 17 8 32 19 44 30 186 110
196 110 5 -1 12 3 15 9 8 12 337 202 351 202 5 0 10 4 10 8 0 5 18 17 40 27
22 10 45 24 51 31 6 8 15 12 19 9 4 -3 13 2 20 10 7 8 17 15 22 15 5 0 16 7
25 15 8 8 19 13 24 10 5 -4 9 -1 9 4 0 6 7 11 15 11 8 0 15 5 15 10 0 6 5 10
10 10 6 0 27 11 48 23 20 13 59 36 85 50 l49 25 -29 18 c-15 9 -44 27 -63 39
-19 13 -114 70 -210 128 -96 58 -202 123 -235 144 -33 20 -62 38 -65 38 -3 0
-23 12 -45 26 -22 14 -69 43 -105 65 -36 21 -66 42 -68 47 -2 4 -8 7 -12 7 -9
0 -423 249 -445 267 -5 4 -21 14 -35 20 -28 14 -50 28 -95 58 -57 39 -77 44
-110 25z"/>
<path d="M6265 3358 c-148 -87 -277 -162 -285 -165 -8 -4 -39 -22 -67 -40 -29
-19 -53 -30 -53 -26 0 4 -4 3 -8 -3 -6 -9 -114 -75 -232 -141 -14 -8 -38 -23
-55 -33 -16 -11 -37 -23 -45 -27 -8 -4 -71 -40 -140 -80 -148 -87 -138 -81
-315 -184 -77 -45 -151 -89 -165 -98 -14 -9 -46 -28 -72 -41 -27 -14 -48 -29
-48 -33 0 -5 -4 -5 -10 -2 -5 3 -10 1 -10 -4 0 -6 -4 -11 -9 -11 -4 0 -82 -43
-172 -96 -90 -53 -178 -105 -196 -115 -38 -21 -101 -59 -128 -76 -11 -7 -33
-19 -50 -28 -16 -8 -43 -23 -60 -33 -16 -11 -124 -74 -240 -142 -115 -67 -263
-154 -327 -192 l-118 -69 0 -861 0 -860 25 16 c13 9 46 28 72 42 26 15 53 30
58 34 6 4 26 17 46 28 37 20 606 353 669 391 19 11 42 24 50 28 8 4 38 21 65
38 28 17 57 35 65 38 8 4 29 16 45 27 17 11 42 25 58 31 15 6 27 15 27 20 0 5
4 9 9 9 13 0 155 82 159 92 2 4 8 8 14 8 9 0 228 126 280 161 15 11 29 19 31
19 3 0 104 59 226 130 122 72 226 130 231 130 6 0 10 5 10 10 0 6 4 10 9 10 5
0 45 21 88 46 238 142 537 314 544 314 5 0 9 4 9 9 0 5 8 11 18 14 17 6 44 22
167 96 37 23 71 41 75 41 29 0 30 39 28 882 l-3 855 -270 -159z"/>
</g>
</svg>
